<svg xmlns="http://www.w3.org/2000/svg" xmlns:xlink="http://www.w3.org/1999/xlink" width="500" zoomAndPan="magnify" viewBox="0 0 375 374.999991" height="500" preserveAspectRatio="xMidYMid meet" version="1.0"><path fill="#8b5cf6" d="M 25 250 L 112.5 250 L 112.5 237.5 L 25 237.5 L 25 250 " fill-opacity="1" fill-rule="nonzero"/><path fill="#8b5cf6" d="M 125 250 L 137.5 250 L 137.5 237.5 L 125 237.5 L 125 250 " fill-opacity="1" fill-rule="nonzero"/><path fill="#8b5cf6" d="M 112.5 287.5 L 25 287.5 L 25 300 L 112.5 300 L 112.5 287.5 " fill-opacity="1" fill-rule="nonzero"/><path fill="#8b5cf6" d="M 137.5 287.5 L 125 287.5 L 125 300 L 137.5 300 L 137.5 287.5 " fill-opacity="1" fill-rule="nonzero"/><path fill="#8b5cf6" d="M 12.5 225 L 150 225 L 150 262.5 L 12.5 262.5 Z M 150 362.5 L 12.5 362.5 L 12.5 325 L 150 325 Z M 150 312.5 L 12.5 312.5 L 12.5 275 L 150 275 Z M 6.25 375 L 156.25 375 C 159.691406 375 162.5 372.191406 162.5 368.75 L 162.5 218.75 C 162.5 215.308594 159.691406 212.5 156.25 212.5 L 6.25 212.5 C 2.808594 212.5 0 215.308594 0 218.75 L 0 368.75 C 0 372.191406 2.808594 375 6.25 375 " fill-opacity="1" fill-rule="nonzero"/><path fill="#8b5cf6" d="M 112.5 337.5 L 25 337.5 L 25 350 L 112.5 350 L 112.5 337.5 " fill-opacity="1" fill-rule="nonzero"/><path fill="#8b5cf6" d="M 137.5 337.5 L 125 337.5 L 125 350 L 137.5 350 L 137.5 337.5 " fill-opacity="1" fill-rule="nonzero"/><path fill="#8b5cf6" d="M 150 100 L 150 87.5 L 137.5 87.5 L 137.5 100 L 150 100 " fill-opacity="1" fill-rule="nonzero"/><path fill="#8b5cf6" d="M 125 100 L 125 87.5 L 112.5 87.5 L 112.5 100 L 125 100 " fill-opacity="1" fill-rule="nonzero"/><path fill="#8b5cf6" d="M 100 100 L 100 87.5 L 87.5 87.5 L 87.5 100 L 100 100 " fill-opacity="1" fill-rule="nonzero"/><path fill="#8b5cf6" d="M 75 87.5 L 62.5 87.5 L 62.5 100 L 75 100 L 75 87.5 " fill-opacity="1" fill-rule="nonzero"/><path fill="#8b5cf6" d="M 75 112.5 L 62.5 112.5 L 62.5 125 L 75 125 L 75 112.5 " fill-opacity="1" fill-rule="nonzero"/><path fill="#8b5cf6" d="M 75 137.5 L 62.5 137.5 L 62.5 150 L 75 150 L 75 137.5 " fill-opacity="1" fill-rule="nonzero"/><path fill="#8b5cf6" d="M 175 87.5 L 162.5 87.5 L 162.5 100 L 175 100 L 175 87.5 " fill-opacity="1" fill-rule="nonzero"/><path fill="#8b5cf6" d="M 75 162.5 L 62.5 162.5 L 62.5 175 L 75 175 L 75 162.5 " fill-opacity="1" fill-rule="nonzero"/><path fill="#8b5cf6" d="M 62.5 200 L 75 200 L 75 187.5 L 62.5 187.5 L 62.5 200 " fill-opacity="1" fill-rule="nonzero"/><path fill="#8b5cf6" d="M 225 300 L 225 312.5 L 237.5 312.5 L 237.5 300 L 225 300 " fill-opacity="1" fill-rule="nonzero"/><path fill="#8b5cf6" d="M 250 300 L 250 312.5 L 262.5 312.5 L 262.5 300 L 250 300 " fill-opacity="1" fill-rule="nonzero"/><path fill="#8b5cf6" d="M 275 312.5 L 287.5 312.5 L 287.5 300 L 275 300 L 275 312.5 " fill-opacity="1" fill-rule="nonzero"/><path fill="#8b5cf6" d="M 275 287.5 L 287.5 287.5 L 287.5 275 L 275 275 L 275 287.5 " fill-opacity="1" fill-rule="nonzero"/><path fill="#8b5cf6" d="M 275 262.5 L 287.5 262.5 L 287.5 250 L 275 250 L 275 262.5 " fill-opacity="1" fill-rule="nonzero"/><path fill="#8b5cf6" d="M 275 237.5 L 287.5 237.5 L 287.5 225 L 275 225 L 275 237.5 " fill-opacity="1" fill-rule="nonzero"/><path fill="#8b5cf6" d="M 287.5 200 L 275 200 L 275 212.5 L 287.5 212.5 L 287.5 200 " fill-opacity="1" fill-rule="nonzero"/><path fill="#8b5cf6" d="M 200 300 L 200 312.5 L 212.5 312.5 L 212.5 300 L 200 300 " fill-opacity="1" fill-rule="nonzero"/><path fill="#8b5cf6" d="M 187.5 300 L 175 300 L 175 312.5 L 187.5 312.5 L 187.5 300 " fill-opacity="1" fill-rule="nonzero"/><path fill="#8b5cf6" d="M 317.601562 166.308594 C 319.703125 160.9375 321.53125 155.492188 323.144531 150 L 339.746094 150 C 333.375 156.617188 325.902344 162.132812 317.601562 166.308594 Z M 222.753906 150 L 240.28125 150 C 241.941406 155.664062 243.824219 161.277344 245.996094 166.84375 C 237.28125 162.621094 229.417969 156.910156 222.753906 150 Z M 245.996094 20.65625 C 243.824219 26.21875 241.941406 31.835938 240.28125 37.5 L 222.753906 37.5 C 229.417969 30.589844 237.28125 24.878906 245.996094 20.65625 Z M 339.746094 37.5 L 323.144531 37.5 C 321.53125 32.007812 319.703125 26.5625 317.601562 21.191406 C 325.902344 25.367188 333.375 30.882812 339.746094 37.5 Z M 331.101562 87.5 C 330.710938 74.902344 329.175781 62.351562 326.390625 50 L 349.609375 50 C 356.664062 60.984375 361.132812 73.753906 362.183594 87.5 Z M 331.101562 100 L 362.183594 100 C 361.132812 113.746094 356.664062 126.511719 349.609375 137.5 L 326.390625 137.5 C 329.175781 125.144531 330.710938 112.597656 331.101562 100 Z M 287.5 137.5 L 287.5 100 L 318.601562 100 C 318.1875 112.597656 316.503906 125.144531 313.523438 137.5 Z M 287.5 150 L 310.058594 150 C 307.664062 157.566406 304.859375 165.039062 301.488281 172.339844 C 296.972656 173.511719 292.308594 174.316406 287.5 174.683594 Z M 275 150 L 275 174.683594 C 270.433594 174.339844 265.964844 173.582031 261.644531 172.507812 L 261.914062 172.386719 C 258.542969 165.0625 255.738281 157.59375 253.34375 150 Z M 244.800781 100 L 275 100 L 275 137.5 L 249.878906 137.5 C 246.921875 125.144531 245.214844 112.597656 244.800781 100 Z M 232.300781 87.5 L 200.316406 87.5 C 201.367188 73.753906 205.835938 60.984375 212.890625 50 L 237.011719 50 C 234.226562 62.351562 232.691406 74.902344 232.300781 87.5 Z M 275 50 L 275 87.5 L 244.800781 87.5 C 245.214844 74.902344 246.921875 62.351562 249.878906 50 Z M 275 37.5 L 253.34375 37.5 C 255.738281 29.90625 258.542969 22.4375 261.914062 15.113281 L 261.644531 14.992188 C 265.964844 13.914062 270.433594 13.160156 275 12.816406 Z M 313.523438 50 C 316.503906 62.351562 318.1875 74.902344 318.601562 87.5 L 287.5 87.5 L 287.5 50 Z M 287.5 37.5 L 287.5 12.816406 C 292.308594 13.183594 296.972656 13.988281 301.488281 15.160156 C 304.859375 22.460938 307.664062 29.929688 310.058594 37.5 Z M 200.316406 100 L 232.300781 100 C 232.691406 112.597656 234.226562 125.144531 237.011719 137.5 L 212.890625 137.5 C 205.835938 126.511719 201.367188 113.746094 200.316406 100 Z M 281.25 0 C 229.539062 0 187.5 42.039062 187.5 93.75 C 187.5 145.457031 229.539062 187.5 281.25 187.5 C 332.957031 187.5 375 145.457031 375 93.75 C 375 42.039062 332.957031 0 281.25 0 " fill-opacity="1" fill-rule="nonzero"/></svg>