<svg xmlns="http://www.w3.org/2000/svg" xmlns:xlink="http://www.w3.org/1999/xlink" width="500" zoomAndPan="magnify" viewBox="0 0 375 374.999991" height="500" preserveAspectRatio="xMidYMid meet" version="1.0"><defs><clipPath id="8edd6846ea"><path d="M 56 229.265625 L 79.746094 229.265625 L 79.746094 351.421875 L 56 351.421875 Z M 56 229.265625 " clip-rule="nonzero"/></clipPath><clipPath id="d264850c19"><path d="M 135 209.304688 L 158.566406 209.304688 L 158.566406 351.421875 L 135 351.421875 Z M 135 209.304688 " clip-rule="nonzero"/></clipPath><clipPath id="03eff31b96"><path d="M 214 177.367188 L 237.386719 177.367188 L 237.386719 351.421875 L 214 351.421875 Z M 214 177.367188 " clip-rule="nonzero"/></clipPath><clipPath id="b9c2626d16"><path d="M 293 136 L 316.207031 136 L 316.207031 351.421875 L 293 351.421875 Z M 293 136 " clip-rule="nonzero"/></clipPath><clipPath id="d06745d1e1"><path d="M 261.332031 23.671875 L 374.453125 23.671875 L 374.453125 136.449219 L 261.332031 136.449219 Z M 261.332031 23.671875 " clip-rule="nonzero"/></clipPath></defs><g clip-path="url(#8edd6846ea)"><path fill="#a5b4fc" d="M 79.277344 241.023438 L 79.277344 339.933594 C 79.277344 346.28125 74.128906 351.433594 67.785156 351.433594 C 61.4375 351.433594 56.289062 346.28125 56.289062 339.933594 L 56.289062 241.023438 C 56.289062 234.675781 61.4375 229.523438 67.785156 229.523438 C 74.128906 229.523438 79.277344 234.675781 79.277344 241.023438 " fill-opacity="1" fill-rule="evenodd"/></g><g clip-path="url(#d264850c19)"><path fill="#a5b4fc" d="M 158.25 221.125 L 158.25 339.933594 C 158.25 346.28125 153.101562 351.433594 146.757812 351.433594 C 140.410156 351.433594 135.261719 346.28125 135.261719 339.933594 L 135.261719 221.125 C 135.261719 214.773438 140.410156 209.628906 146.757812 209.628906 C 153.101562 209.628906 158.25 214.773438 158.25 221.125 " fill-opacity="1" fill-rule="evenodd"/></g><g clip-path="url(#03eff31b96)"><path fill="#a5b4fc" d="M 237.226562 189.265625 L 237.226562 339.933594 C 237.226562 346.28125 232.078125 351.433594 225.734375 351.433594 C 219.386719 351.433594 214.238281 346.28125 214.238281 339.933594 L 214.238281 189.265625 C 214.238281 182.917969 219.386719 177.769531 225.734375 177.769531 C 232.078125 177.769531 237.226562 182.917969 237.226562 189.265625 " fill-opacity="1" fill-rule="evenodd"/></g><g clip-path="url(#b9c2626d16)"><path fill="#a5b4fc" d="M 316.199219 147.675781 L 316.199219 339.933594 C 316.199219 346.28125 311.050781 351.433594 304.707031 351.433594 C 298.363281 351.433594 293.214844 346.28125 293.214844 339.933594 L 293.214844 147.675781 C 293.214844 141.328125 298.363281 136.179688 304.707031 136.179688 C 311.050781 136.179688 316.199219 141.328125 316.199219 147.675781 " fill-opacity="1" fill-rule="evenodd"/></g><path fill="#a5b4fc" d="M 11.878906 216.964844 C 5.570312 216.671875 0.664062 211.316406 0.933594 205 C 1.207031 198.675781 6.578125 193.746094 12.898438 194.027344 C 23.300781 194.484375 34.320312 193.859375 44.664062 192.964844 C 72.070312 190.59375 99.523438 185.1875 125.917969 177.492188 C 214.796875 151.574219 291.265625 99.824219 351.371094 29.609375 C 355.472656 24.816406 362.757812 24.25 367.550781 28.355469 C 372.347656 32.460938 372.914062 39.75 368.8125 44.542969 C 305.792969 118.160156 225.542969 172.269531 132.386719 199.445312 C 104.5 207.578125 75.519531 213.285156 46.566406 215.808594 C 38.222656 216.535156 29.824219 217.011719 21.441406 217.09375 C 18.273438 217.128906 15.046875 217.125 11.878906 216.964844 " fill-opacity="1" fill-rule="evenodd"/><g clip-path="url(#d06745d1e1)"><path fill="#a5b4fc" d="M 267.621094 23.691406 C 264.460938 23.691406 261.898438 26.257812 261.898438 29.417969 C 261.898438 33.386719 368.070312 136.261719 368.710938 136.261719 C 371.871094 136.261719 374.433594 133.695312 374.433594 130.535156 L 374.433594 29.925781 C 374.449219 29.757812 374.457031 29.589844 374.457031 29.417969 C 374.457031 26.246094 371.886719 23.667969 368.710938 23.667969 L 368.710938 23.691406 L 267.621094 23.691406 " fill-opacity="1" fill-rule="nonzero"/></g></svg>