<svg xmlns="http://www.w3.org/2000/svg" xmlns:xlink="http://www.w3.org/1999/xlink" width="500" zoomAndPan="magnify" viewBox="0 0 375 374.999991" height="500" preserveAspectRatio="xMidYMid meet" version="1.0"><defs><clipPath id="4cca99a20d"><path d="M 5.621094 69 L 369 69 L 369 306.535156 L 5.621094 306.535156 Z M 5.621094 69 " clip-rule="nonzero"/></clipPath></defs><path fill="#64748b" d="M 177.644531 207.949219 L 170.664062 207.949219 C 168.65625 207.949219 166.832031 207.125 165.507812 205.796875 L 165.296875 205.597656 C 164.101562 204.296875 163.355469 202.550781 163.355469 200.632812 C 163.355469 197.988281 161.210938 195.832031 158.5625 195.832031 C 155.910156 195.832031 153.769531 197.976562 153.769531 200.632812 C 153.769531 205.113281 155.546875 209.214844 158.433594 212.261719 L 158.734375 212.589844 C 161.503906 215.359375 165.234375 217.171875 169.367188 217.488281 L 169.367188 222.917969 C 169.367188 225.5625 171.507812 227.714844 174.160156 227.714844 C 176.8125 227.714844 178.953125 225.570312 178.953125 222.917969 L 178.953125 217.488281 C 183.085938 217.171875 186.816406 215.359375 189.585938 212.589844 L 189.585938 212.570312 C 192.644531 209.503906 194.542969 205.277344 194.542969 200.632812 C 194.542969 195.984375 192.636719 191.757812 189.585938 188.695312 L 189.566406 188.675781 C 186.507812 185.613281 182.285156 183.710938 177.644531 183.710938 L 170.664062 183.710938 C 168.65625 183.710938 166.832031 182.886719 165.507812 181.558594 L 165.296875 181.359375 C 164.101562 180.058594 163.355469 178.3125 163.355469 176.394531 C 163.355469 174.375 164.171875 172.546875 165.488281 171.230469 L 165.507812 171.230469 C 166.832031 169.902344 168.65625 169.074219 170.664062 169.074219 L 177.644531 169.074219 C 179.660156 169.074219 181.488281 169.902344 182.8125 171.21875 C 184.128906 172.546875 184.953125 174.382812 184.953125 176.394531 C 184.953125 179.039062 187.097656 181.195312 189.75 181.195312 C 192.398438 181.195312 194.542969 179.046875 194.542969 176.394531 C 194.542969 171.746094 192.636719 167.519531 189.585938 164.457031 L 189.566406 164.4375 C 186.796875 161.664062 183.074219 159.863281 178.953125 159.539062 L 178.953125 154.109375 C 178.953125 151.453125 176.8125 149.308594 174.160156 149.308594 C 171.507812 149.308594 169.367188 151.453125 169.367188 154.109375 L 169.367188 159.539062 C 165.234375 159.855469 161.503906 161.664062 158.742188 164.445312 C 155.675781 167.519531 153.769531 171.746094 153.769531 176.382812 C 153.769531 180.867188 155.546875 184.96875 158.433594 188.011719 L 158.734375 188.339844 C 161.792969 191.402344 166.023438 193.304688 170.671875 193.304688 L 177.65625 193.304688 C 179.671875 193.304688 181.496094 194.132812 182.820312 195.449219 C 184.136719 196.777344 184.964844 198.613281 184.964844 200.625 C 184.964844 202.640625 184.136719 204.46875 182.8125 205.789062 C 181.476562 207.125 179.652344 207.949219 177.644531 207.949219 Z M 177.644531 207.949219 " fill-opacity="1" fill-rule="nonzero"/><path fill="#64748b" d="M 174.160156 249.382812 C 190.945312 249.382812 206.144531 242.5625 217.140625 231.554688 C 228.144531 220.542969 234.945312 205.324219 234.945312 188.511719 C 234.945312 171.703125 228.136719 156.484375 217.140625 145.472656 C 206.144531 134.453125 190.945312 127.644531 174.160156 127.644531 C 157.371094 127.644531 142.171875 134.460938 131.179688 145.472656 C 120.175781 156.492188 113.375 171.710938 113.375 188.511719 C 113.375 205.324219 120.183594 220.542969 131.179688 231.554688 C 142.171875 242.574219 157.371094 249.382812 174.160156 249.382812 Z M 138.859375 153.164062 C 147.894531 144.117188 160.378906 138.527344 174.160156 138.527344 C 187.941406 138.527344 200.425781 144.125 209.460938 153.164062 C 218.492188 162.210938 224.078125 174.710938 224.078125 188.511719 C 224.078125 202.3125 218.484375 214.816406 209.460938 223.863281 C 200.425781 232.90625 187.941406 238.5 174.160156 238.5 C 160.378906 238.5 147.894531 232.898438 138.859375 223.863281 C 129.824219 214.816406 124.242188 202.3125 124.242188 188.511719 C 124.234375 174.710938 129.824219 162.210938 138.859375 153.164062 Z M 138.859375 153.164062 " fill-opacity="1" fill-rule="nonzero"/><g clip-path="url(#4cca99a20d)"><path fill="#64748b" d="M 368.746094 233.460938 L 342.632812 106.90625 L 342.632812 106.878906 C 342.632812 106.105469 342.46875 105.367188 342.179688 104.703125 L 335.75 73.574219 C 335.152344 70.636719 332.292969 68.746094 329.367188 69.347656 L 174.257812 101.441406 L 11.113281 101.441406 C 8.117188 101.441406 5.683594 103.878906 5.683594 106.878906 L 5.683594 270.148438 C 5.683594 273.148438 8.117188 275.585938 11.113281 275.585938 L 33.40625 275.585938 L 38.796875 301.707031 C 39.398438 304.640625 42.257812 306.535156 45.179688 305.933594 L 191.847656 275.585938 L 337.195312 275.585938 C 340.191406 275.585938 342.625 273.148438 342.625 270.148438 L 342.625 244.390625 L 364.515625 239.863281 C 367.449219 239.261719 369.34375 236.398438 368.746094 233.460938 Z M 326.246094 81.066406 L 330.449219 101.441406 L 227.761719 101.441406 Z M 48.3125 294.214844 L 44.472656 275.585938 L 138.351562 275.585938 Z M 331.765625 264.710938 L 16.554688 264.710938 L 16.554688 112.324219 L 331.765625 112.324219 Z M 342.632812 233.316406 L 342.632812 160.484375 L 357.042969 230.335938 Z M 342.632812 233.316406 " fill-opacity="1" fill-rule="nonzero"/></g><path fill="#64748b" d="M 39.042969 164.621094 C 42.039062 164.621094 44.472656 162.183594 44.472656 159.183594 L 44.472656 138.800781 L 64.828125 138.800781 C 67.824219 138.800781 70.257812 136.363281 70.257812 133.363281 C 70.257812 130.363281 67.824219 127.925781 64.828125 127.925781 L 39.042969 127.925781 C 36.046875 127.925781 33.613281 130.363281 33.613281 133.363281 L 33.613281 159.183594 C 33.605469 162.183594 36.039062 164.621094 39.042969 164.621094 Z M 39.042969 164.621094 " fill-opacity="1" fill-rule="nonzero"/><path fill="#64748b" d="M 64.828125 238.226562 L 44.472656 238.226562 L 44.472656 217.84375 C 44.472656 214.84375 42.039062 212.40625 39.042969 212.40625 C 36.046875 212.40625 33.613281 214.84375 33.613281 217.84375 L 33.613281 243.664062 C 33.613281 246.664062 36.046875 249.101562 39.042969 249.101562 L 64.828125 249.101562 C 67.824219 249.101562 70.257812 246.664062 70.257812 243.664062 C 70.257812 240.664062 67.824219 238.226562 64.828125 238.226562 Z M 64.828125 238.226562 " fill-opacity="1" fill-rule="nonzero"/><path fill="#64748b" d="M 283.484375 138.800781 L 303.839844 138.800781 L 303.839844 159.183594 C 303.839844 162.183594 306.269531 164.621094 309.269531 164.621094 C 312.265625 164.621094 314.695312 162.183594 314.695312 159.183594 L 314.695312 133.363281 C 314.695312 130.363281 312.265625 127.925781 309.269531 127.925781 L 283.484375 127.925781 C 280.488281 127.925781 278.054688 130.363281 278.054688 133.363281 C 278.054688 136.363281 280.488281 138.800781 283.484375 138.800781 Z M 283.484375 138.800781 " fill-opacity="1" fill-rule="nonzero"/><path fill="#64748b" d="M 283.484375 249.109375 L 309.269531 249.109375 C 312.265625 249.109375 314.695312 246.671875 314.695312 243.671875 L 314.695312 217.851562 C 314.695312 214.851562 312.265625 212.414062 309.269531 212.414062 C 306.269531 212.414062 303.839844 214.851562 303.839844 217.851562 L 303.839844 238.234375 L 283.484375 238.234375 C 280.488281 238.234375 278.054688 240.671875 278.054688 243.671875 C 278.054688 246.671875 280.488281 249.109375 283.484375 249.109375 Z M 283.484375 249.109375 " fill-opacity="1" fill-rule="nonzero"/></svg>